# xmcd
#
# Track frame offsets:
#	150
#	17632
#	31416
#	51794
#	75563
#	97924
#	123855
#	140184
#	163636
#	183052
#	201019
#	218392
#	233031
#	246703
#
# Disc length: 3484 seconds
#
# Revision: 1
# Processed by: cddbd v1.5.1PL2 Copyright (c) Steve Scherf et al.
# Submitted via: audiograbber 1.82.02
#
DISCID=b20d9a0e
DTITLE=laura canoura - esencia/2
DYEAR=1900
DGENRE=
TTITLE0=bienvenido
TTITLE1=naif
TTITLE2=los hijos de gardel
TTITLE3=la casita de mis viejos
TTITLE4=tu
TTITLE5=senora eme
TTITLE6=3 de agosto
TTITLE7=casandra
TTITLE8=realidad virtual
TTITLE9=cinema paradiso
TTITLE10=nada
TTITLE11=solos y juntos
TTITLE12=que me van a hablar de amor
TTITLE13=chamuyo cafiolo
EXTD=
EXTT0=
EXTT1=
EXTT2=
EXTT3=
EXTT4=
EXTT5=
EXTT6=
EXTT7=
EXTT8=
EXTT9=
EXTT10=
EXTT11=
EXTT12=
EXTT13=
PLAYORDER=
